<?xml version="1.0" encoding="utf-8"?>
<!-- Generator: Adobe Illustrator 24.1.2, SVG Export Plug-In . SVG Version: 6.00 Build 0)  -->
<svg version="1.1" id="Layer_1" xmlns="http://www.w3.org/2000/svg" xmlns:xlink="http://www.w3.org/1999/xlink" x="0px" y="0px"
	 viewBox="0 0 97 41.2" style="enable-background:new 0 0 97 41.2;" xml:space="preserve">
<style type="text/css">
	.st0{fill:#D36027;stroke:#231F20;stroke-width:0.8256;stroke-miterlimit:10;}
	.st1{fill:#5AB3E4;stroke:#231F20;stroke-width:0.8256;stroke-miterlimit:10;}
	.st2{fill:#231F20;}
	.st3{font-family:'Helvetica';}
	.st4{font-size:5.5259px;}
	.st5{fill:none;stroke:#231F20;stroke-width:0.5871;stroke-miterlimit:10;}
	.st6{fill:#CC79A6;}
</style>
<g>
	<g>
		<path class="st0" d="M89.69,1.45H68.22v23.83H89.7c3.71,0,6.72-3.01,6.72-6.72V8.17C96.42,4.46,93.4,1.45,89.69,1.45z"/>
		<path class="st1" d="M55.92,1.45c-3.71,0-6.72,3.01-6.72,6.72v10.38c0,3.71,3.01,6.72,6.72,6.72h12.29V1.45H55.92z"/>
	</g>
	<text transform="matrix(1 0 0 1 50.2851 15.295)" class="st2 st3 st4">dCas9</text>
	<text transform="matrix(1 0 0 1 69.9936 15.295)" class="st2 st3 st4">Repressor</text>
	<g>
		<path class="st5" d="M37.51,34.32"/>
		<path class="st5" d="M82.23,30.66c-0.68,0.83-2.8,3.21-5.93,3.49c-0.75,0.07-3.08,0.15-5.35-1.05c-0.82-0.43-1.18-0.79-1.92-0.87
			c-1.52-0.17-2.92,1.01-3.9,2.09V20.94v-0.05c-1.06-2.18-3.09-3.53-5.29-3.52c-2.18,0.01-4.19,1.36-5.24,3.52v0.05v13.38H37.75"/>
		<rect x="38.23" y="34.71" class="st6" width="16.34" height="6.49"/>
		<rect x="54.92" y="25.85" class="st6" width="9.9" height="8.1"/>
	</g>
</g>
</svg>
